<?xml version="1.0" encoding="UTF-8"?>
<!DOCTYPE svg PUBLIC "-//W3C//DTD SVG 1.1//EN" "http://www.w3.org/Graphics/SVG/1.1/DTD/svg11.dtd">
<svg xmlns="http://www.w3.org/2000/svg" version="1.1" width="307" height="313" viewBox="45 105 307 313" preserveAspectRatio="xMidYMid meet" style="shape-rendering:geometricPrecision; text-rendering:geometricPrecision; image-rendering:optimizeQuality; fill-rule:evenodd; clip-rule:evenodd" xmlns:xlink="http://www.w3.org/1999/xlink">
<g><path fill="#5c6370" stroke="#5c6370" stroke-width="0.5" d="M 223.15,116.55 c 18.64,2.77 36.15,8.83 52.53,18.18 c 15.76,7.71 7.08,27.6 -7.29,22.27 c -10.03,-4.76 -19.67,-9.77 -30.35,-13 c 0.17,-0.38 0.14,-0.75 -0.08,-1.11 c -2.73,-1.5 -5.61,-2.64 -8.64,-3.41 c 1.2,-0.1 2.32,-0.42 3.36,-0.98 c -1.53,-1.6 -1.99,-0.39 0.02,-2.03 c -4.92,-5.87 -9.69,-11.87 -14.32,-18 c 1.58,-0.61 4.28,0.48 4.77,-1.92 Z"/></g>
<g><path fill="#668fef" stroke="#668fef" stroke-width="0.5" d="M 283.01,345.96 c 0.67,0.59 1.19,1.29 1.57,2.09 c -0.13,0.64 -0.13,1.26 0.01,1.87 c 1.69,1.04 3.42,1.99 5.2,2.82 c 0.51,1.22 0.69,2.49 0.55,3.79 c 0.79,0.44 1.3,1.08 1.54,1.94 c -0.18,0.99 -0.29,2 -0.33,3.01 c -0.83,1.63 -2.11,1.83 -0.01,3.07 c -3.19,1.29 -1.13,3.22 0.53,4.49 c -10.87,9.47 -22.88,17.18 -36.03,23.1 c 0.25,-2.41 -5,0.43 -3.87,-4.08 c 0.29,-1.18 1.92,-1.09 1.67,-2.31 c -3.21,-4.32 -4.65,-8.12 -2.14,-13.24 c -0.38,-0.35 -0.8,-0.67 -1.25,-0.95 c 1.22,-1.52 3.71,-1.02 2.46,-3.81 c 11.12,-5.76 21.16,-13.03 30.1,-21.79 Z"/></g>
<g><path fill="#80a6f4" stroke="#80a6f4" stroke-width="0.5" d="M 321.27,193.78 c 6.58,6.58 10.89,13.33 13.59,22.25 c -1.05,-0.51 -3.23,2.01 -4.21,2.45 c -5.21,4.34 -0.02,17.43 -2.16,18.2 c -0.5,-0.32 -0.96,-0.31 -1.39,0.03 c 0.89,2.56 1.56,5.2 2.01,7.9 c -2.05,12.87 -0.49,17.18 3.55,29.2 c 0.18,1.27 -0.07,2.46 -0.74,3.55 c -0.55,0.22 -1.12,0.26 -1.71,0.12 c 1.46,9.55 -4.99,18.14 -2.95,24.9 c 0.42,0.78 0.92,1.5 1.5,2.15 c -1.25,3 -4.02,-0.58 -3.68,1.97 c 0.79,2.3 1.37,4.65 1.72,7.05 c 0.33,3.01 -0.03,5.92 -1.07,8.74 c -0.03,0.79 0.26,1.44 0.89,1.94 c -2.83,5.52 -5.94,10.87 -9.31,16.07 c -2.67,-3.09 -5.67,-9.47 -2.47,-12.98 c 3.82,-1.49 5.61,-2.91 5.59,-7.38 c -1.26,-5.09 -1.94,-7.12 -0.73,-12.26 c -0.94,-2.21 -1.73,-2.89 -3.51,-4.36 c -0.44,-1.07 -0.34,-2.07 0.3,-3.01 c 0.43,0.53 0.78,1.1 1.08,1.73 c 0.72,0.88 1.13,0.79 1.21,-0.28 c -0.5,-1.16 -1.01,-2.31 -1.54,-3.45 c 0.55,-1.18 0.83,-2.4 0.83,-3.68 c -0.61,-0.81 -1.93,-2.34 -2.83,-1 c -0.48,0.84 -0.84,6.99 -2.77,4.19 c 8.39,-24.2 8.65,-62.39 -4.65,-84.61 c 3.01,-3.09 5.51,-2.63 7.09,-7.83 c 0.15,-2.35 0.31,-4.69 0.47,-7.01 c 2.51,-1.26 5.35,-1.19 5.89,-4.59 Z"/></g>
<g><path fill="#87adf4" stroke="#87adf4" stroke-width="0.5" d="M 334.86,216.03 c 10.71,35.95 8.14,74.37 -8.24,108.2 c -0.63,-0.5 -0.92,-1.15 -0.89,-1.94 c 1.04,-2.82 1.4,-5.73 1.07,-8.74 c -0.35,-2.4 -0.93,-4.75 -1.72,-7.05 c -0.34,-2.55 2.43,1.03 3.68,-1.97 c -0.58,-0.65 -1.08,-1.37 -1.5,-2.15 c -2.04,-6.76 4.41,-15.35 2.95,-24.9 c 0.59,0.14 1.16,0.1 1.71,-0.12 c 0.67,-1.09 0.92,-2.28 0.74,-3.55 c -4.04,-12.02 -5.6,-16.33 -3.55,-29.2 c -0.45,-2.7 -1.12,-5.34 -2.01,-7.9 c 0.43,-0.34 0.89,-0.35 1.39,-0.03 c 2.14,-0.77 -3.05,-13.86 2.16,-18.2 c 0.98,-0.44 3.16,-2.96 4.21,-2.45 Z"/></g>
<g><path fill="#729bf2" stroke="#729bf2" stroke-width="0.5" d="M 300.96,322.9 c 1.21,1.32 2.34,2.71 3.39,4.17 c 2.54,1.06 1.75,3.3 2.45,5.53 c -0.23,1.99 -0.3,3.97 -0.21,5.95 c -0.1,0.1 -0.21,0.21 -0.31,0.31 c -0.77,-0.27 -1.54,-0.38 -2.31,-0.33 c -0.84,1.27 -1.49,2.64 -1.94,4.12 c 0.78,1.56 1.61,3.12 2.48,4.67 c 0.1,1.04 0.08,2.08 -0.06,3.11 c 0.44,0.62 0.72,1.3 0.85,2.04 c -0.6,1.95 -1.72,1.61 -0.16,3.64 c -4.23,4.43 -8.59,8.75 -13.07,12.93 c -1.66,-1.27 -3.72,-3.2 -0.53,-4.49 c -2.1,-1.24 -0.82,-1.44 0.01,-3.07 c 0.04,-1.01 0.15,-2.02 0.33,-3.01 c -0.24,-0.86 -0.75,-1.5 -1.54,-1.94 c 0.14,-1.3 -0.04,-2.57 -0.55,-3.79 c -1.78,-0.83 -3.51,-1.78 -5.2,-2.82 c -0.14,-0.61 -0.14,-1.23 -0.01,-1.87 c -0.38,-0.8 -0.9,-1.5 -1.57,-2.09 c 6.82,-7.03 12.8,-14.72 17.95,-23.06 Z"/></g>
<g><path fill="#79a1f3" stroke="#79a1f3" stroke-width="0.5" d="M 300.98,184.08 c 7.63,1.42 14.39,4.66 20.29,9.7 c -0.54,3.4 -3.38,3.33 -5.89,4.59 c -0.16,2.32 -0.32,4.66 -0.47,7.01 c -1.58,5.2 -4.08,4.74 -7.09,7.83 c -4.59,-4.33 -9.15,-6.96 -15.74,-5.96 c 0.03,-0.67 0.34,-1.16 0.93,-1.48 c 1.05,0.32 2.05,0.24 3,-0.25 c 0.98,-1.36 2.14,-2.55 3.5,-3.55 c 0.67,-0.84 -0.71,-1.08 -1.15,-1.48 c 2.93,-2.12 1.77,-4.89 1.77,-7.87 c 0.39,-2.01 1.02,-2.42 -0.68,-4.16 c 0.59,-1.16 -0.39,-1.14 -1.01,-1.94 c 1.03,-0.42 2.1,-0.73 3.2,-0.94 c -0.43,-0.41 -0.65,-0.91 -0.66,-1.5 Z M 317.31,340.3 c -3.75,5.5 -7.81,10.77 -12.17,15.81 c -1.56,-2.03 -0.44,-1.69 0.16,-3.64 c -0.13,-0.74 -0.41,-1.42 -0.85,-2.04 c 0.14,-1.03 0.16,-2.07 0.06,-3.11 c -0.87,-1.55 -1.7,-3.11 -2.48,-4.67 c 0.45,-1.48 1.1,-2.85 1.94,-4.12 c 0.77,-0.05 1.54,0.06 2.31,0.33 c 0.1,-0.1 0.21,-0.21 0.31,-0.31 c -0.09,-1.98 -0.02,-3.96 0.21,-5.95 c -0.7,-2.23 0.09,-4.47 -2.45,-5.53 c -1.05,-1.46 -2.18,-2.85 -3.39,-4.17 c 4.67,-7.98 8.5,-16.34 11.51,-25.08 c 1.93,2.8 2.29,-3.35 2.77,-4.19 c 0.9,-1.34 2.22,0.19 2.83,1 c 0,1.28 -0.28,2.5 -0.83,3.68 c 0.53,1.14 1.04,2.29 1.54,3.45 c -0.08,1.07 -0.49,1.16 -1.21,0.28 c -0.3,-0.63 -0.65,-1.2 -1.08,-1.73 c -0.64,0.94 -0.74,1.94 -0.3,3.01 c 1.78,1.47 2.57,2.15 3.51,4.36 c -1.21,5.14 -0.53,7.17 0.73,12.26 c 0.02,4.47 -1.77,5.89 -5.59,7.38 c -3.2,3.51 -0.2,9.89 2.47,12.98 Z"/></g>
<g><path fill="#5d84e2" stroke="#5d84e2" stroke-width="0.5" d="M 252.91,367.75 c 1.25,2.79 -1.24,2.29 -2.46,3.81 c 0.45,0.28 0.87,0.6 1.25,0.95 c -2.51,5.12 -1.07,8.92 2.14,13.24 c 0.25,1.22 -1.38,1.13 -1.67,2.31 c -1.13,4.51 4.12,1.67 3.87,4.08 c -0.68,0.28 -1.37,0.56 -2.06,0.84 c -0.18,-0.78 -0.69,-1.12 -1.5,-1.01 c -5.63,2.01 -11.09,3.9 -16.88,5.31 c -1.12,0.3 -2.22,0.37 -3.31,0.21 c 1.63,-3.15 2.25,-2.64 -0.88,-4.05 c 0.37,-0.3 0.75,-0.6 1.14,-0.88 c -0.9,-0.52 -1.64,-1.2 -2.21,-2.06 c 1.18,-0.43 2.41,-0.76 3.7,-1 c 0.59,-0.29 1.13,-0.65 1.61,-1.07 c -1.58,-0.87 -3.23,-1.11 -4.97,-0.71 c -1.04,-1.27 -1.99,-2.63 -2.83,-4.06 c -0.47,-0.4 -0.95,-0.8 -1.43,-1.18 c 0.75,-0.32 1.5,-0.66 2.23,-1.04 c -0.78,-1.46 -3.31,0.75 -3.65,-1.3 c 0.43,-0.11 0.69,-0.39 0.79,-0.82 c -0.59,-0.45 -1.19,-0.88 -1.8,-1.29 c 10,-2.41 19.64,-5.84 28.92,-10.28 Z"/></g>
<g><path fill="#4f69a5" stroke="#4f69a5" stroke-width="0.5" d="M 168.15,375.66 c 6.85,1.92 13.81,3.28 20.88,4.06 c -0.05,0.44 -0.28,0.75 -0.68,0.94 c -3.12,-0.01 -6.18,0.44 -9.17,1.36 c 0.41,0.54 0.89,1.03 1.44,1.48 c -0.48,3.19 -1.82,4.33 -4.28,6 c 0.63,0.47 1.29,0.92 1.98,1.32 c 1.16,1.39 1.73,2.98 1.72,4.78 c -0.18,1.29 -0.46,2.54 -0.84,3.78 c 0.53,0.36 1.07,0.7 1.61,1.02 c -0.42,0.51 -0.69,1.07 -0.83,1.7 c -6.75,-0.97 -13.4,-2.42 -19.95,-4.34 c 1.11,-1.17 3.02,-1.08 0.41,-2.3 c 2.24,-0.9 1.14,-0.79 -0.03,-2.03 c 1.57,-3.84 3.35,-9.86 1.97,-13.92 c 0.78,-0.77 1.57,-1.54 2.35,-2.3 c 1.1,-0.34 3.33,0.14 3.42,-1.55 Z"/></g>
<g><path fill="#5372bc" stroke="#5372bc" stroke-width="0.5" d="M 189.03,379.72 c 1.31,0.12 2.62,0.22 3.93,0.28 c 0.39,0.5 0.91,0.74 1.57,0.72 c 4.01,0.21 8.02,0.33 12.03,0.36 c 1.72,0.25 1.72,0.58 -0.01,0.97 c -1.76,-0.07 -3.48,0.06 -5.16,0.42 c -0.13,1.3 -0.02,2.58 0.34,3.85 c -0.49,0.71 -0.96,1.44 -1.41,2.17 c 0.31,1.39 0.75,2.75 1.31,4.06 c -1.35,2.39 0.05,3.39 0.54,5.73 c 1.15,1.08 2.22,2.2 3.23,3.37 c 2.17,-0.29 4.33,-0.58 6.47,-0.86 c 0.85,0.31 1.72,0.5 2.63,0.56 c 1.75,0.24 5.94,-1.43 6.7,0.82 c -9.77,1.52 -19.58,1.9 -29.44,1.13 c -3.95,-0.18 -7.87,-0.58 -11.78,-1.2 c 0.14,-0.63 0.41,-1.19 0.83,-1.7 c -0.54,-0.32 -1.08,-0.66 -1.61,-1.02 c 0.38,-1.24 0.66,-2.49 0.84,-3.78 c 0.01,-1.8 -0.56,-3.39 -1.72,-4.78 c -0.69,-0.4 -1.35,-0.85 -1.98,-1.32 c 2.46,-1.67 3.8,-2.81 4.28,-6 c -0.55,-0.45 -1.03,-0.94 -1.44,-1.48 c 2.99,-0.92 6.05,-1.37 9.17,-1.36 c 0.4,-0.19 0.63,-0.5 0.68,-0.94 Z"/></g>
<g><path fill="#597ed7" stroke="#597ed7" stroke-width="0.5" d="M 225,380.14 c 0.34,2.05 2.87,-0.16 3.65,1.3 c -0.73,0.38 -1.48,0.72 -2.23,1.04 c 0.48,0.38 0.96,0.78 1.43,1.18 c 0.84,1.43 1.79,2.79 2.83,4.06 c 1.74,-0.4 3.39,-0.16 4.97,0.71 c -0.48,0.42 -1.02,0.78 -1.61,1.07 c -1.29,0.24 -2.52,0.57 -3.7,1 c 0.57,0.86 1.31,1.54 2.21,2.06 c -0.39,0.28 -0.77,0.58 -1.14,0.88 c 3.13,1.41 2.51,0.9 0.88,4.05 c 1.09,0.16 2.19,0.09 3.31,-0.21 c 5.79,-1.41 11.25,-3.3 16.88,-5.31 c 0.81,-0.11 1.32,0.23 1.5,1.01 c -10.22,4.48 -20.86,7.51 -31.9,9.08 c -0.3,0.04 -0.59,0.07 -0.88,0.11 c -0.76,-2.25 -4.95,-0.58 -6.7,-0.82 c -0.91,-0.06 -1.78,-0.25 -2.63,-0.56 c 3.4,-2.46 3.82,-4.08 2.18,-8.24 c -0.08,-3.51 -0.02,-6.98 0.17,-10.43 c 0.6,1.04 1.37,1.9 2.31,2.58 c 1.29,-1.8 1.57,-2.04 -0.22,-3.21 c 2.96,-0.12 5.85,-0.57 8.69,-1.35 Z"/></g>
<g><path fill="#495e8c" stroke="#495e8c" stroke-width="0.5" d="M 154.11,370.78 c 4.65,1.72 9.33,3.35 14.04,4.88 c -0.09,1.69 -2.32,1.21 -3.42,1.55 c -0.78,0.76 -1.57,1.53 -2.35,2.3 c 1.38,4.06 -0.4,10.08 -1.97,13.92 c 1.17,1.24 2.27,1.13 0.03,2.03 c 2.61,1.22 0.7,1.13 -0.41,2.3 c -0.69,-0.2 -1.38,-0.41 -2.06,-0.63 c 0.29,-0.84 1.24,-1.35 0.5,-2.23 c -2.76,-0.94 -5.55,-1.8 -8.37,-2.58 c -1.41,-0.38 -2.67,-1 -3.8,-1.88 c 0.41,-0.36 0.85,-0.68 1.32,-0.98 c -0.34,-0.96 -0.02,-1.62 0.98,-1.98 c -0.64,-1.79 -0.35,-1.9 1.02,-3.01 c -0.87,-1.86 -0.18,-2.3 0.3,-4.08 c 0.45,-2.28 0.79,-4.57 1.03,-6.88 c -0.44,-0.73 -0.97,-1.39 -1.59,-1.99 c 1.1,-0.15 2.16,0.05 3.17,0.6 c 0.92,0 1.44,-0.44 1.58,-1.34 Z"/></g>
<g><path fill="#5779cd" stroke="#5779cd" stroke-width="0.5" d="M 223.99,378.03 c 0.61,0.41 1.21,0.84 1.8,1.29 c -0.1,0.43 -0.36,0.71 -0.79,0.82 c -2.84,0.78 -5.73,1.23 -8.69,1.35 c 1.79,1.17 1.51,1.41 0.22,3.21 c -0.94,-0.68 -1.71,-1.54 -2.31,-2.58 c -0.19,3.45 -0.25,6.92 -0.17,10.43 c 1.64,4.16 1.22,5.78 -2.18,8.24 c -2.14,0.28 -4.3,0.57 -6.47,0.86 c -1.01,-1.17 -2.08,-2.29 -3.23,-3.37 c -0.49,-2.34 -1.89,-3.34 -0.54,-5.73 c -0.56,-1.31 -1,-2.67 -1.31,-4.06 c 0.45,-0.73 0.92,-1.46 1.41,-2.17 c -0.36,-1.27 -0.47,-2.55 -0.34,-3.85 c 1.68,-0.36 3.4,-0.49 5.16,-0.42 c 1.73,-0.39 1.73,-0.72 0.01,-0.97 c -4.01,-0.03 -8.02,-0.15 -12.03,-0.36 c -0.66,0.02 -1.18,-0.22 -1.57,-0.72 c 10.43,0.74 20.77,0.08 31.03,-1.97 Z"/></g>
<g><path fill="#f3f8fc" d="M 221.2,402.17 c 0.29,-0.04 0.58,-0.07 0.88,-0.11 c 0.05,2.05 1.49,3.45 -1.58,2.33 c -1.86,0.79 -3.04,-0.24 -5,1.42 c -9.62,2.22 -19.31,0.94 -29.03,0.62 c -1.49,-0.55 -1.47,-1.03 0.07,-1.42 c 1.59,-0.12 4.98,0.65 5.22,-1.71 c 9.86,0.77 19.67,0.39 29.44,-1.13 Z"/></g>
<g><path fill="#3d4350" stroke="#3d4350" stroke-width="0.5" d="M 215.08,115.65 c 0.44,0.78 1.02,1.46 1.73,2.04 c -0.94,0.17 -1.82,0.47 -2.66,0.91 c 0.12,0.31 0.28,0.61 0.47,0.88 c -0.5,0.71 -1.07,1.36 -1.73,1.95 c -1.4,0.3 -5.17,1.1 -5.17,3.05 c 0.39,1.82 1.33,3.27 2.83,4.34 c 0.1,1 0.46,1.9 1.08,2.69 c -1.49,0.9 -1.83,-1.94 -3.66,-0.01 c -0.22,1.46 -0.45,2.89 -0.7,4.28 c -1.38,0.15 -5.19,-0.63 -6.14,0.45 c 3.19,0.37 6.37,0.83 9.53,1.39 c -1.37,0.16 -2.73,0.39 -4.08,0.68 c -3.69,0.03 -7.39,0.02 -11.08,-0.04 c -0.43,0.1 -0.6,0.36 -0.52,0.78 c -82.97,6.76 -140.69,88.68 -106.63,167.78 c -1.51,0.66 -2.81,1.6 -3.9,2.83 c -1.25,-0.4 -2.46,-1.32 -1.81,0.85 c -2.02,1.74 -2.54,2.24 -3.26,4.96 c 0.81,0.35 1.6,0.74 2.37,1.17 c 0.44,1.15 0.3,2.2 -0.42,3.15 c -2.1,-0.02 -3.29,-1.05 -3.59,-3.09 c -0.18,-0.48 -0.52,-0.67 -1.01,-0.57 c -2.78,1.19 -5.2,2.89 -7.27,5.07 c -10.2,-21.26 -14.87,-43.67 -14,-67.22 c 5.54,-84.14 75.96,-143.5 159.62,-138.32 Z M 214.12,242.69 c 2.46,1.07 4.88,2.26 7.23,3.56 c 1.38,1.05 2.49,2.35 3.32,3.88 c 2.76,5.27 0.58,7.75 -0.47,12.64 c -7.19,6.12 -16.97,5.19 -24.02,-0.6 c -13.32,-10.57 -26.63,-21.15 -39.94,-31.74 c -7.57,-4.65 -17.57,-2.3 -18.75,7.41 c -0.06,25.86 -0.22,51.72 -0.48,77.58 c -0.84,13 -21.22,13.93 -22.16,0.01 c -0.25,-27.17 -0.88,-55.75 0.2,-82.79 c 2.3,-17.33 21.02,-30.32 38.25,-27.38 c 18.52,2.1 37.96,25.25 53.32,35.48 c 1.01,0.95 2.17,1.6 3.5,1.95 Z"/></g>
<g><path fill="#6a8de3" d="M 246.96,213.93 c 0.24,0.77 0.13,1.48 -0.34,2.14 c -1.73,1.64 -3.52,3.19 -5.39,4.66 c -1.2,1.48 -2.54,2.82 -4.01,4.02 c -0.58,1.44 -1.62,2.38 -3.12,2.83 c -2.1,1.92 -4.15,3.9 -6.16,5.93 c -0.32,0.65 -0.62,1.31 -0.9,1.97 c -1.88,1.81 -3.74,3.63 -5.58,5.48 c -1.26,2.08 1.71,5.45 3.17,6.76 c 0.44,0.8 0.45,1.6 0.04,2.41 c -0.83,-1.53 -1.94,-2.83 -3.32,-3.88 c -2.35,-1.3 -4.77,-2.49 -7.23,-3.56 c -0.05,-0.31 0.04,-0.57 0.28,-0.78 c 10.93,-9.23 21.78,-18.56 32.56,-27.98 Z"/></g>
<g><path fill="#6690f2" stroke="#6690f2" stroke-width="0.5" d="M 280,187.05 c 0.96,0.99 1.67,2.14 2.13,3.46 c 2.58,3.47 4.68,0.25 5.69,1.13 c -1.15,1.35 -2.13,2.83 -2.94,4.45 c -0.66,3.04 0.49,5.07 3.46,6.09 c 1.79,-0.03 3.55,0.07 5.26,0.3 c -0.93,0.4 -1.93,0.63 -2.99,0.68 c -2.27,2 2.22,1.27 2.4,2.61 c -0.59,0.32 -0.9,0.81 -0.93,1.48 c -4.49,1.59 -7.15,4.71 -7.99,9.37 c -0.17,32.59 -0.29,65.18 -0.36,97.77 c -0.63,13.3 -18.32,15.64 -22.35,2.8 c -0.44,-3.89 -0.62,-7.8 -0.53,-11.72 c -0.04,-23.66 -0.04,-47.32 -0.01,-70.98 c 0.06,-0.51 -0.09,-0.93 -0.45,-1.26 c -11.86,10.06 -23.92,19.9 -36.19,29.54 c 1.05,-4.89 3.23,-7.37 0.47,-12.64 c 0.41,-0.81 0.4,-1.61 -0.04,-2.41 c -1.46,-1.31 -4.43,-4.68 -3.17,-6.76 c 1.84,-1.85 3.7,-3.67 5.58,-5.48 c 0.28,-0.66 0.58,-1.32 0.9,-1.97 c 2.01,-2.03 4.06,-4.01 6.16,-5.93 c 1.5,-0.45 2.54,-1.39 3.12,-2.83 c 1.47,-1.2 2.81,-2.54 4.01,-4.02 c 1.87,-1.47 3.66,-3.02 5.39,-4.66 c 0.47,-0.66 0.58,-1.37 0.34,-2.14 c 10.26,-8.26 21.7,-20.68 33.04,-26.88 Z"/></g>
<g><path fill="#7098f3" stroke="#7098f3" stroke-width="0.5" d="M 300.98,184.08 c 0.01,0.59 0.23,1.09 0.66,1.5 c -1.1,0.21 -2.17,0.52 -3.2,0.94 c 0.62,0.8 1.6,0.78 1.01,1.94 c 1.7,1.74 1.07,2.15 0.68,4.16 c 0,2.98 1.16,5.75 -1.77,7.87 c 0.44,0.4 1.82,0.64 1.15,1.48 c -1.36,1 -2.52,2.19 -3.5,3.55 c -0.95,0.49 -1.95,0.57 -3,0.25 c -0.18,-1.34 -4.67,-0.61 -2.4,-2.61 c 1.06,-0.05 2.06,-0.28 2.99,-0.68 c -1.71,-0.23 -3.47,-0.33 -5.26,-0.3 c -2.97,-1.02 -4.12,-3.05 -3.46,-6.09 c 0.81,-1.62 1.79,-3.1 2.94,-4.45 c -1.01,-0.88 -3.11,2.34 -5.69,-1.13 c -0.46,-1.32 -1.17,-2.47 -2.13,-3.46 c 6.73,-2.78 13.73,-3.77 20.98,-2.97 Z"/></g>
<g><path fill="#3f4a62" stroke="#3f4a62" stroke-width="0.5" d="M 133.22,359.81 c 5.17,3.19 10.49,6.12 15.95,8.81 c -0.13,0.47 -0.42,0.81 -0.88,1.02 c -0.78,0.13 -1.48,0.42 -2.1,0.86 c 0.52,4.2 -0.1,8.23 -1.87,12.1 c -0.08,0.63 0,1.25 0.25,1.85 c -1.93,0.63 -3.67,1.62 -5.21,2.96 c 0.91,0.67 1.89,1.25 2.94,1.72 c 0.25,0.65 0.15,1.26 -0.3,1.84 c -2.06,-0.9 -4.1,-1.85 -6.11,-2.85 c 0.25,-0.75 0.16,-1.46 -0.28,-2.13 c -3.74,-1.94 -7.42,-4 -11.03,-6.18 c -1.41,-1.26 1.3,-0.96 -0.63,-2.36 c -0.86,-0.39 -1.69,-0.31 -2.49,0.22 c -1.47,-0.92 -1.4,-1.74 0.22,-2.45 c 0.89,0.14 1.78,0.35 2.64,0.61 c 1.51,-0.66 2.93,-1.45 4.27,-2.36 c -0.09,-0.28 -0.14,-0.57 -0.16,-0.86 c 3.4,-2.81 3.37,-5.53 -0.1,-8.17 c 2.09,-1.29 1.12,-1.1 0.03,-2.89 c 0.59,-0.84 -0.65,-2.87 0.82,-2.19 c 1.08,0.62 3.62,3.11 4.04,0.45 Z"/></g>
<g><path fill="#48597d" d="M 149.17,368.62 c 1.62,0.77 3.27,1.5 4.94,2.16 c -0.14,0.9 -0.66,1.34 -1.58,1.34 c -1.01,-0.55 -2.07,-0.75 -3.17,-0.6 c 0.62,0.6 1.15,1.26 1.59,1.99 c -0.24,2.31 -0.58,4.6 -1.03,6.88 c -0.48,1.78 -1.17,2.22 -0.3,4.08 c -1.37,1.11 -1.66,1.22 -1.02,3.01 c -1,0.36 -1.32,1.02 -0.98,1.98 c -0.47,0.3 -0.91,0.62 -1.32,0.98 c 1.13,0.88 2.39,1.5 3.8,1.88 c 2.82,0.78 5.61,1.64 8.37,2.58 c 0.74,0.88 -0.21,1.39 -0.5,2.23 c -5.45,-1.72 -10.77,-3.77 -15.97,-6.16 c 0.45,-0.58 0.55,-1.19 0.3,-1.84 c -1.05,-0.47 -2.03,-1.05 -2.94,-1.72 c 1.54,-1.34 3.28,-2.33 5.21,-2.96 c -0.25,-0.6 -0.33,-1.22 -0.25,-1.85 c 1.77,-3.87 2.39,-7.9 1.87,-12.1 c 0.62,-0.44 1.32,-0.73 2.1,-0.86 c 0.46,-0.21 0.75,-0.55 0.88,-1.02 Z"/></g>
<g><path fill="#3a404c" stroke="#3a404c" stroke-width="0.5" d="M 88.35,306.82 c 9.87,21.96 24.83,39.62 44.87,52.99 c -0.42,2.66 -2.96,0.17 -4.04,-0.45 c -1.47,-0.68 -0.23,1.35 -0.82,2.19 c 1.09,1.79 2.06,1.6 -0.03,2.89 c 3.47,2.64 3.5,5.36 0.1,8.17 c 0.02,0.29 0.07,0.58 0.16,0.86 c -1.34,0.91 -2.76,1.7 -4.27,2.36 c -0.86,-0.26 -1.75,-0.47 -2.64,-0.61 c -1.62,0.71 -1.69,1.53 -0.22,2.45 c 0.8,-0.53 1.63,-0.61 2.49,-0.22 c 1.93,1.4 -0.78,1.1 0.63,2.36 c 3.61,2.18 7.29,4.24 11.03,6.18 c 0.44,0.67 0.53,1.38 0.28,2.13 c -28.21,-14.34 -52.55,-38.42 -66.43,-66.93 c 2.07,-2.18 4.49,-3.88 7.27,-5.07 c 0.49,-0.1 0.83,0.09 1.01,0.57 c 0.3,2.04 1.49,3.07 3.59,3.09 c 0.72,-0.95 0.86,-2 0.42,-3.15 c -0.77,-0.43 -1.56,-0.82 -2.37,-1.17 c 0.72,-2.72 1.24,-3.22 3.26,-4.96 c -0.65,-2.17 0.56,-1.25 1.81,-0.85 c 1.09,-1.23 2.39,-2.17 3.9,-2.83 Z"/></g>
<g><path fill="#4f5664" stroke="#4f5664" stroke-width="0.5" d="M 215.08,115.65 c 2.7,0.23 5.39,0.53 8.07,0.9 c -0.49,2.4 -3.19,1.31 -4.77,1.92 c 4.63,6.13 9.4,12.13 14.32,18 c -2.01,1.64 -1.55,0.43 -0.02,2.03 c -1.04,0.56 -2.16,0.88 -3.36,0.98 c 3.03,0.77 5.91,1.91 8.64,3.41 c 0.22,0.36 0.25,0.73 0.08,1.11 c -14.07,-4.12 -28.43,-5.77 -43.06,-4.96 c -0.08,-0.42 0.09,-0.68 0.52,-0.78 c 3.69,0.06 7.39,0.07 11.08,0.04 c 1.35,-0.29 2.71,-0.52 4.08,-0.68 c -3.16,-0.56 -6.34,-1.02 -9.53,-1.39 c 0.95,-1.08 4.76,-0.3 6.14,-0.45 c 0.25,-1.39 0.48,-2.82 0.7,-4.28 c 1.83,-1.93 2.17,0.91 3.66,0.01 c -0.62,-0.79 -0.98,-1.69 -1.08,-2.69 c -1.5,-1.07 -2.44,-2.52 -2.83,-4.34 c 0,-1.95 3.77,-2.75 5.17,-3.05 c 0.66,-0.59 1.23,-1.24 1.73,-1.95 c -0.19,-0.27 -0.35,-0.57 -0.47,-0.88 c 0.84,-0.44 1.72,-0.74 2.66,-0.91 c -0.71,-0.58 -1.29,-1.26 -1.73,-2.04 Z"/></g>
</svg>
