<?xml version="1.0" encoding="UTF-8"?>
<!DOCTYPE svg PUBLIC "-//W3C//DTD SVG 1.1//EN" "http://www.w3.org/Graphics/SVG/1.1/DTD/svg11.dtd">
<svg xmlns="http://www.w3.org/2000/svg" version="1.1" width="673" height="158" viewBox="35 539 673 158" preserveAspectRatio="xMidYMid meet" style="shape-rendering:geometricPrecision; text-rendering:geometricPrecision; image-rendering:optimizeQuality; fill-rule:evenodd; clip-rule:evenodd" xmlns:xlink="http://www.w3.org/1999/xlink">
<g><path fill="#fbfbfc" stroke="#fbfbfc" stroke-width="0.5" d="M 309.01,584.74 c -3.47,1.18 -6.29,3.26 -8.44,6.23 c -1.73,-1.36 -2.1,-3.03 -1.13,-5.01 c 0.77,-0.51 1.51,-1.05 2.22,-1.63 c 0.76,0.49 1.55,0.57 2.37,0.23 c 0.82,-0.98 1.67,-1.91 2.56,-2.8 c 1.28,0.11 1.56,0.71 0.84,1.79 c 0.49,0.43 1.02,0.83 1.58,1.19 Z M 164.63,635 c -0.56,-11.82 17.98,-11.53 25.89,-12.06 c 0.56,0.01 0.95,0.26 1.19,0.76 c 2.94,25.03 -27.1,25.15 -27.08,11.3 Z M 548.99,640 c 0.27,-15.74 22.74,-14.55 33.6,-16.72 c 0.77,-0.17 1.38,0.04 1.85,0.63 c 0.12,3.42 0.13,6.83 0.02,10.24 c -2.54,19.73 -33.16,25.36 -35.47,5.85 Z"/></g>
<g><path fill="#f5f5f7" d="M 276.47,648.99 c 0.24,-1.15 0.37,-2.32 0.39,-3.49 c -0.2,-15.29 0.32,-30.69 -0.16,-46 c 0.48,-2.07 -0.44,-6.48 0.82,-8.03 c -0.73,-0.87 -0.97,-1.86 -0.73,-2.97 c 0.62,-1.39 1.18,-2.78 1.69,-4.18 c 0.49,0.62 0.69,1.34 0.59,2.16 c 0,22.68 -0.02,45.36 -0.08,68.04 c 0,0.5 -0.18,0.91 -0.52,1.25 c -2.08,-1.07 -1.22,-4.85 -2,-6.78 Z"/></g>
<g><path fill="#626772" d="M 648.91,617.96 c 0.3,1.03 -0.2,2.1 0.77,2.82 c 3.94,0.18 7.88,0.21 11.83,0.11 c 0.88,-0.01 1.73,0.15 2.55,0.47 c -0.46,0.35 -0.97,0.53 -1.55,0.55 c -3.47,-0.1 -6.85,0.11 -10.13,0.62 c 0.13,0.33 0.26,0.67 0.38,1.01 c -0.9,0.28 -1.78,0.63 -2.63,1.03 c 0.34,0.38 0.78,0.55 1.31,0.51 c 6.35,-0.06 12.69,-0.04 19.04,0.07 c 0.94,-0.02 1.86,0.12 2.75,0.42 c -7.6,0.12 -15.2,0.16 -22.8,0.12 c -2.15,0.04 -1.18,3 -1.34,4.33 c -1.01,-0.97 -1.33,-2.17 -0.97,-3.59 c 0.02,-0.46 -0.17,-0.82 -0.55,-1.05 c -0.38,1.42 -0.73,2.85 -1.05,4.29 c -2.48,-0.66 -1.57,-5.24 -1.62,-7.12 c 0.31,-1.23 0.81,-2.35 1.49,-3.35 c 0.45,0.8 0.85,1.62 1.21,2.45 c 1.57,-0.77 -0.5,-2.94 1.31,-3.69 Z"/></g>
<g><path fill="#222630" stroke="#222630" stroke-width="0.5" d="M 48.02,604 c -0.45,-36.62 30.74,-62.67 66.32,-48.75 c 9.68,4.06 16.44,10.97 20.27,20.72 c 0.59,1.36 0.92,2.78 1,4.23 c -3.78,1.63 -7.64,3.09 -11.58,4.39 c -1.39,0.13 -4.71,2.45 -5.37,0.16 c -7.06,-21.07 -33.98,-21.74 -45.51,-4.16 c -11.45,20.6 -7.76,59.79 22.35,59.68 c 9.99,0.03 17.24,-4.4 21.74,-13.31 c 0.81,-2.2 1.69,-4.34 2.63,-6.43 c 1.58,-0.22 12.81,5.2 15.19,6.05 c 0.96,0.7 1.2,1.62 0.73,2.76 c -11.32,34.31 -60.07,36.31 -79.03,7.58 c -6.32,-10.06 -9.23,-21.04 -8.74,-32.92 Z M 147.05,635 c 1,-22.28 28.98,-22.67 45.43,-23.02 c 0.6,-0.26 0.91,-0.73 0.94,-1.39 c 0.7,-16.37 -23.07,-18.99 -28.08,-4.67 c -0.2,0.29 -0.47,0.47 -0.82,0.54 c -4.4,-1.34 -8.77,-2.79 -13.12,-4.37 c -0.38,-0.17 -0.68,-0.43 -0.91,-0.77 c 5.94,-24.72 58.98,-25.54 59.13,6.36 c 0.67,15.18 -1.12,30.95 1.61,45.9 c -0.03,1.07 -0.58,1.6 -1.67,1.57 c -4.68,0.02 -9.37,0 -14.06,-0.06 c -0.55,-0.06 -0.95,-0.33 -1.22,-0.82 c -0.46,-2.37 -1.08,-4.65 -1.86,-6.86 c -1.94,1.95 -4.07,3.68 -6.38,5.19 c -16.09,8.85 -38.93,3.83 -38.99,-17.6 Z M 228.02,602 c 0.07,-4.84 0.07,-9.68 -0.01,-14.52 c 0.09,-1.5 0.92,-2.13 2.46,-1.88 c 4.38,0.01 8.75,0.08 13.11,0.21 c 2.34,1.43 -0.23,8.46 1.73,9.02 c 1.45,-2.46 3.18,-4.72 5.21,-6.76 c 4.36,-3.51 9.31,-4.8 14.85,-3.88 c 2.01,0.58 4.21,0.46 3.83,3.29 c 0.1,4.4 -0.24,8.76 -1.02,13.08 c -0.43,0.49 -0.97,0.67 -1.62,0.54 c -8.52,-2.43 -16.31,-0.47 -19.54,8.41 c -2.73,10.24 -0.69,32.38 -1.27,43.95 c 0.06,0.53 -0.09,0.99 -0.46,1.36 c -5.26,0.26 -10.53,0.35 -15.82,0.25 c -0.57,0.01 -1,-0.23 -1.28,-0.72 c -0.11,-17.44 -0.16,-34.9 -0.17,-52.35 Z M 300.57,590.97 c 2.15,-2.97 4.97,-5.05 8.44,-6.23 c 3.85,-1.22 7.69,-1.17 11.51,0.15 c 0.51,0.12 0.9,0.41 1.14,0.87 c -0.07,4.91 -0.33,9.82 -0.77,14.72 c -0.03,0.47 -0.25,0.82 -0.65,1.04 c -12.69,-3.74 -20.7,0.26 -22.22,13.98 c -0.12,12.66 -0.16,25.32 -0.15,37.98 c 0.04,0.55 -0.15,0.99 -0.56,1.34 c -4.94,0.26 -9.89,0.39 -14.85,0.4 c -0.83,0.05 -1.51,-0.24 -2.03,-0.88 c -0.01,-22.23 -0.05,-44.5 -0.13,-66.79 c -0.02,-1.42 0.71,-2.08 2.17,-1.99 c 4.02,0 8.04,0.01 12.06,0.03 c 1.51,-0.2 2.33,0.44 2.46,1.91 c 0.15,2.01 0.2,4.02 0.13,6.04 c 0.04,1.3 0.49,1.47 1.37,0.53 c 0.64,-1.06 1.33,-2.1 2.08,-3.1 Z M 328.03,586.05 c 3.11,-0.98 11.73,-0.16 15.47,-0.46 c 0.98,-0.08 1.91,0.1 2.78,0.54 c 5.51,15 10.81,30.09 15.9,45.27 c 0.23,0.89 0.67,1.65 1.31,2.28 c 5.69,-15.64 11.19,-31.36 16.5,-47.15 c 0.67,-0.7 1.5,-1 2.48,-0.9 c 4.69,0.01 9.38,0.02 14.06,0.02 c 0.88,-0.11 1.56,0.18 2.05,0.86 c -9.66,24.3 -19.11,48.68 -28.36,73.14 c -6.31,20.66 -17.42,29.24 -39.68,22.34 c -0.46,-0.38 -0.66,-0.86 -0.6,-1.46 c 0.62,-3.92 1.07,-7.86 1.35,-11.81 c 0.72,-1.71 4.81,0.14 6.22,0.14 c 9.82,1.27 13.06,-3.47 15.99,-11.87 c 1.25,-3.88 -17.81,-48.52 -20.17,-55.94 c -1.92,-4.95 -3.68,-9.95 -5.3,-15 Z M 164.63,635 c -0.02,13.85 30.02,13.73 27.08,-11.3 c -0.24,-0.5 -0.63,-0.75 -1.19,-0.76 c -7.91,0.53 -26.45,0.24 -25.89,12.06 Z"/></g>
<g><path fill="#4a505c" stroke="#4a505c" stroke-width="0.5" d="M 600.77,596.99 c 0.02,-0.73 0.35,-1.27 0.98,-1.62 c 2.6,-0.02 5.19,-0.02 7.79,0.02 c 1.51,0.2 2.3,-0.44 2.37,-1.92 c 0.32,-2.11 -0.7,-14.49 0.88,-15.1 c 1.09,-0.23 3.6,-1.47 4.12,0.17 c 0.08,4.99 0.11,9.98 0.1,14.97 c -0.06,0.6 0.13,1.11 0.56,1.52 c 4.58,0.35 9.18,0.47 13.79,0.37 c 2.44,-0.44 2.37,3.79 1.08,4.58 c -4.63,0.15 -9.27,0.2 -13.91,0.15 c -0.55,-0.06 -0.99,0.12 -1.32,0.56 c 0.1,12 -0.84,33.98 0.83,44.88 c 1.62,7.16 9.82,6.76 15.29,4.79 c 1.18,0.93 1.29,3.6 0.23,4.7 c -10.8,3.26 -20.4,1.13 -21.35,-11.68 c -0.28,-14.21 -0.45,-28.41 -0.52,-42.62 c -0.32,-0.41 -0.74,-0.58 -1.27,-0.53 c -2.96,0.03 -5.92,-0.05 -8.87,-0.23 c -0.75,-0.85 -1.01,-1.86 -0.78,-3.01 Z M 612.75,587.08 c -0.03,2.1 0.1,4.18 0.39,6.25 c 0.81,0.1 1.66,0.04 2.53,-0.17 c 0.12,-0.21 0.23,-0.42 0.35,-0.63 c 0.02,-3.68 -0.04,-7.36 -0.15,-11.03 c 0.01,-0.66 -0.23,-1.21 -0.71,-1.65 c -0.25,0.84 -0.3,1.73 -0.13,2.66 c -0.04,0.44 -0.21,0.8 -0.52,1.09 c -0.26,-0.85 -0.64,-1.63 -1.15,-2.36 c -0.45,1.9 -0.65,3.84 -0.61,5.84 Z"/></g>
<g><path fill="#454b56" stroke="#454b56" stroke-width="0.5" d="M 511.35,601.16 c -3.28,-0.82 1.85,-5.64 0.17,-7.81 c -0.87,0.51 -1.65,0.4 -2.35,-0.33 c 3.38,-7.64 6.94,-15.2 10.66,-22.67 c 1.28,-0.55 5.49,-1.26 5.5,1.03 c 0.06,27.51 0.13,55.01 0.21,82.51 c -0.28,0.96 -0.94,1.4 -2.01,1.32 c -1.27,-0.08 -3.8,0.41 -3.64,-1.66 c -0.14,-23.06 -0.07,-46.12 0.2,-69.17 c 0.06,-0.82 -0.21,-1.8 -1.1,-0.97 c -2.42,5.97 -4.96,11.89 -7.64,17.75 Z"/></g>
<g><path fill="#494f5a" stroke="#494f5a" stroke-width="0.5" d="M 509.17,593.02 c 0.7,0.73 1.48,0.84 2.35,0.33 c 1.68,2.17 -3.45,6.99 -0.17,7.81 c -7.84,17.69 -15.75,35.34 -23.74,52.95 c -0.73,1.58 -3.33,1.55 -4.1,-0.1 c -3.92,-8.77 -7.84,-17.53 -11.77,-26.3 c -6.61,-14.54 -12.96,-29.19 -19.04,-43.95 c -0.47,-0.7 -0.96,-0.76 -1.48,-0.17 c 1.94,22.38 0.35,47.37 0.37,70.04 c 0.06,2.25 -5.79,2.51 -5.56,-0.13 c -0.01,-27.33 0,-54.66 0.03,-81.99 c -0.27,-2.34 3.15,-1.47 4.48,-1.6 c 0.86,0.03 1.49,0.42 1.89,1.18 c 10.62,24.03 21.38,48 32.29,71.9 c 0.52,1.11 1.16,1.2 1.92,0.25 c 7.54,-16.72 15.06,-33.46 22.53,-50.22 Z M 543.29,640 c 0.93,-11.57 8.39,-15.91 18.95,-18.15 c 7.39,-1.22 14.75,-2.53 22.07,-3.93 c 3.19,-21.01 -21.46,-23.57 -33.97,-12.11 c -1.97,1.13 -2.72,-3.92 -2.01,-4.99 c 13.25,-9.63 37.34,-10.72 41.12,9.18 c 0.35,14.79 0.8,29.58 1.33,44.37 c -0.95,1.41 -3.67,1.18 -4.9,0.26 c -0.58,-3.08 -1.09,-6.16 -1.51,-9.23 c -1.51,1.65 -3.07,3.27 -4.69,4.85 c -12.12,10.43 -34.98,9.14 -36.39,-10.25 Z M 673.23,625.57 c -0.89,-0.3 -1.81,-0.44 -2.75,-0.42 c -6.35,-0.11 -12.69,-0.13 -19.04,-0.07 c -0.53,0.04 -0.97,-0.13 -1.31,-0.51 c 0.85,-0.4 1.73,-0.75 2.63,-1.03 c -0.12,-0.34 -0.25,-0.68 -0.38,-1.01 c 3.28,-0.51 6.66,-0.72 10.13,-0.62 c 0.58,-0.02 1.09,-0.2 1.55,-0.55 c 7.8,-0.38 15.61,-0.53 23.42,-0.44 c 1.46,-0.11 2,-0.89 1.62,-2.36 c -2.97,-27.33 -34.87,-25.09 -40.19,-0.6 c -1.81,0.75 0.26,2.92 -1.31,3.69 c -0.36,-0.83 -0.76,-1.65 -1.21,-2.45 c -0.68,1 -1.18,2.12 -1.49,3.35 c 0.05,1.88 -0.86,6.46 1.62,7.12 c 0.32,-1.44 0.67,-2.87 1.05,-4.29 c 0.38,0.23 0.57,0.59 0.55,1.05 c -0.36,1.42 -0.04,2.62 0.97,3.59 c 1.97,18.72 17.98,26.57 34.79,19.16 c 2.65,-1.34 5.2,-2.83 7.65,-4.49 c 1.19,-0.37 2.64,3.38 2.04,4.41 c -16.67,12.81 -42.26,10.02 -48.84,-12.17 c -12.68,-49.7 50.93,-58.88 50.52,-13.38 c 0.13,1.41 -0.5,2.09 -1.88,2.04 c -6.71,-0.07 -13.43,-0.08 -20.14,-0.02 Z M 548.99,640 c 2.31,19.51 32.93,13.88 35.47,-5.85 c 0.11,-3.41 0.1,-6.82 -0.02,-10.24 c -0.47,-0.59 -1.08,-0.8 -1.85,-0.63 c -10.86,2.17 -33.33,0.98 -33.6,16.72 Z"/></g>
<g><path fill="#404651" d="M 612.75,587.08 c -0.04,-2 0.16,-3.94 0.61,-5.84 c 0.51,0.73 0.89,1.51 1.15,2.36 c 0.31,-0.29 0.48,-0.65 0.52,-1.09 c -0.17,-0.93 -0.12,-1.82 0.13,-2.66 c 0.48,0.44 0.72,0.99 0.71,1.65 c 0.11,3.67 0.17,7.35 0.15,11.03 c -0.12,0.21 -0.23,0.42 -0.35,0.63 c -0.87,0.21 -1.72,0.27 -2.53,0.17 c -0.29,-2.07 -0.42,-4.15 -0.39,-6.25 Z"/></g>
</svg>
